<?xml version="1.0" standalone="no"?>
<!DOCTYPE svg PUBLIC "-//W3C//DTD SVG 20010904//EN"
 "http://www.w3.org/TR/2001/REC-SVG-20010904/DTD/svg10.dtd">
<svg version="1.0" xmlns="http://www.w3.org/2000/svg"
 width="200.000000pt" height="125.000000pt" viewBox="0 0 200.000000 125.000000"
 preserveAspectRatio="xMidYMid meet">
<metadata>
Created by potrace 1.16, written by Peter Selinger 2001-2019
</metadata>
<g transform="translate(0.000000,125.000000) scale(0.033333,-0.050000)"
fill="#000000" stroke="none">
<path d="M2396 1303 c-82 -192 -159 -364 -172 -385 -15 -23 -36 -40 -59 -48
-61 -20 -28 -30 103 -30 126 0 142 6 70 29 -20 7 -40 21 -43 31 -3 11 10 58
32 112 l38 93 153 3 152 3 21 -48 c64 -146 66 -181 10 -195 -69 -19 -27 -28
124 -28 146 0 195 10 125 25 -16 3 -42 21 -57 38 -17 20 -86 172 -177 390 -82
196 -154 357 -160 357 -6 0 -78 -156 -160 -347z m193 9 c34 -79 61 -148 61
-153 0 -5 -57 -9 -130 -9 -71 0 -130 2 -130 6 0 5 58 143 105 248 14 32 28 57
30 55 2 -3 31 -69 64 -147z"/>
<path d="M3265 1303 c-82 -192 -159 -364 -171 -385 -15 -23 -36 -40 -59 -48
-19 -6 -35 -16 -35 -21 0 -12 247 -12 254 0 3 5 -14 14 -38 20 -68 17 -68 37
-2 184 l26 58 152 -3 151 -3 34 -78 c41 -98 43 -139 8 -155 -14 -7 -32 -12
-40 -12 -8 0 -15 -4 -15 -10 0 -6 60 -10 160 -10 103 0 160 4 160 10 0 6 -14
13 -30 17 -17 3 -42 20 -58 37 -16 19 -87 175 -176 389 -82 196 -154 357 -161
357 -6 0 -78 -156 -160 -347z m198 -1 l65 -152 -134 0 c-74 0 -134 3 -134 6 0
6 108 260 122 287 5 10 11 17 13 15 2 -2 33 -72 68 -156z"/>
<path d="M1445 1627 c-2 -7 -6 -50 -10 -96 -5 -66 -4 -82 7 -79 7 3 17 21 21
41 13 55 54 84 129 92 35 3 74 4 88 2 l25 -4 3 -294 c4 -362 1 -394 -38 -414
-16 -8 -40 -15 -55 -15 -14 0 -25 -4 -25 -10 0 -6 63 -10 170 -10 107 0 170 4
170 10 0 6 -14 10 -30 10 -20 0 -40 9 -56 25 l-24 24 2 338 3 338 37 3 c59 5
149 -16 175 -40 13 -12 26 -39 29 -60 4 -24 12 -38 21 -38 12 0 14 14 8 88 -4
48 -9 91 -12 95 -8 13 -634 7 -638 -6z"/>
<path d="M3897 1633 c-15 -15 -5 -23 28 -23 22 0 43 -8 55 -20 19 -19 20 -33
20 -354 l0 -335 -26 -20 c-15 -12 -40 -21 -55 -21 -16 0 -29 -4 -29 -10 0 -6
109 -10 308 -10 l307 0 29 93 c40 128 39 127 30 127 -5 0 -22 -25 -38 -56 -19
-36 -44 -66 -70 -83 -37 -24 -49 -26 -167 -29 -82 -3 -134 0 -148 7 -21 12
-21 16 -21 341 l0 329 26 20 c17 13 41 21 65 21 64 0 44 17 -28 23 -89 9 -278
9 -286 0z"/>
</g>
</svg>
